<?xml version="1.0" standalone="no"?><?xml-stylesheet type="text/css" href="https://wps.processon.com/themes/default/wps/mind/icons/icons.css" ?><!DOCTYPE svg PUBLIC "-//W3C//DTD SVG 1.1//EN" "http://www.w3.org/Graphics/SVG/1.1/DTD/svg11.dtd"><svg xmlns="http://www.w3.org/2000/svg" xlink="http://www.w3.org/1999/xlink" id="mind-svg-view-con" version="1.1" width="1422.078125px" height="589px" style="position: absolute; width: 1422.08px; height: 589px; transform-origin: 0px 0px;"><defs></defs><g id="svgbackgroundid"><defs></defs><rect x="0" y="0" width="1422.078125" height="589" fill="transparent"></rect></g><g><defs><pattern patternUnits="userSpaceOnUse" id="pattern_mark_0" width="300" height="300"><text x="150" y="100" fill="rgb(228,229,228)" font-size="18" transform="rotate(-45, 150, 150)" style="dominant-baseline: middle; text-anchor: middle;">Yasina2020</text></pattern></defs><rect fill="url(#pattern_mark_0)" x="0" y="0" width="1422.078125" height="589" id="rect_mark_0" pointer-events="none"></rect></g><g transform="translate(-9825, -9646.5)" id="sdjakdjak5"><defs></defs><g class="svg-topic-con" transform="translate(0.5,0.5)"><path part="right" sub="true" id="line_4412f0cd03a51eb4" d="M 10000 9941 C 10000 9941 10010 9768.84375 10225 9768.84375" stroke="#cccdcd" fill="none" stroke-width="2"></path><path part="right" sub="true" id="line_b02654543455454f" d="M 10000 9941 C 10000 9941 10010 9980.34375 10225 9980.34375" stroke="#cccdcd" fill="none" stroke-width="2"></path><path part="right" sub="true" id="line_3deafa3883cca5ca" d="M 10000 9941 C 10000 9941 10010 10119.4296875 10225 10119.4296875" stroke="#cccdcd" fill="none" stroke-width="2"></path><path part="right" sub="true" id="line_69cfb4bc8772fd7b" d="M 10000 9941 C 10000 9941 10010 10185.4296875 10225 10185.4296875" stroke="#cccdcd" fill="none" stroke-width="2"></path></g><g class="svg-connection-con" transform="translate(0.5,0.5)"></g><g class="svg-freesums-con" transform="translate(0.5,0.5)"></g><g class="svg-freebos-con" transform="translate(0.5,0.5)"></g></g><g id="3deafa3883cca5ca"><rect x="400" y="453" rx="6px" ry="6px" width="62" height="40" style="fill: #ffffff; stroke:none;stroke-width:0px;"></rect><g><text text-anchor="start" align="top" anchor="start" font-size="16px" font-weight="normal" fill="rgb(78, 84, 91)" style="font-size:16px;font-family:'Microsoft YaHei',微软雅黑,Arial;color:#4E545B;font-style:normal;text-align:left;font-weight:normal;"><tspan x="416" y="478"><tspan>tool</tspan></tspan></text></g></g><g id="2ad92f6c82d96489"><rect x="490.4375" y="460.140625" rx="1px" ry="1px" width="174" height="24" style="fill: transparent; stroke:none;stroke-width:0px;"></rect><g><text text-anchor="start" align="top" anchor="start" font-size="13px" font-weight="normal" fill="rgb(68, 68, 68)" style="font-size:13px;font-family:'Microsoft YaHei',微软雅黑,Arial;color:rgb(68,68,68);font-style:normal;text-align:left;font-weight:normal;"><tspan x="499" y="478"><tspan>物联网，云相关的一些工具</tspan></tspan></text></g></g><g id="69cfb4bc8772fd7b"><rect x="400" y="519" rx="6px" ry="6px" width="64" height="40" style="fill: #ffffff; stroke:none;stroke-width:0px;"></rect><g><text text-anchor="start" align="top" anchor="start" font-size="16px" font-weight="normal" fill="rgb(78, 84, 91)" style="font-size:16px;font-family:'Microsoft YaHei',微软雅黑,Arial;color:#4E545B;font-style:normal;text-align:left;font-weight:normal;"><tspan x="416" y="544"><tspan>杂项</tspan></tspan></text></g></g><g id="b02654543455454f"><rect x="400" y="303.453125" rx="6px" ry="6px" width="151" height="61" style="fill: #ffffff; stroke:none;stroke-width:0px;"></rect><g><text text-anchor="start" align="top" anchor="start" font-size="16px" font-weight="normal" fill="rgb(78, 84, 91)" style="font-size:16px;font-family:'Microsoft YaHei',微软雅黑,Arial;color:#4E545B;font-style:normal;text-align:left;font-weight:normal;"><tspan x="416" y="327"><tspan style="font-size:inherit;">FreeRTOS-PLUS</tspan></tspan><tspan x="416" y="349.4"><tspan>FreeRTOS组件</tspan></tspan></text></g></g><g id="6449063dd706067d"><rect x="579.078125" y="276.671875" rx="1px" ry="1px" width="60" height="24" style="fill: transparent; stroke:none;stroke-width:0px;"></rect><g><text text-anchor="start" align="top" anchor="start" font-size="13px" font-weight="normal" fill="rgb(68, 68, 68)" style="font-size:13px;font-family:'Microsoft YaHei',微软雅黑,Arial;color:rgb(68,68,68);font-style:normal;text-align:left;font-weight:normal;"><tspan x="588" y="294"><tspan>Source</tspan></tspan></text></g></g><g id="08e97c048b278606"><rect x="667.53125" y="241" rx="1px" ry="1px" width="421" height="95" style="fill: transparent; stroke:none;stroke-width:0px;"></rect><g><text text-anchor="start" align="top" anchor="start" font-size="13px" font-weight="normal" fill="rgb(68, 68, 68)" style="font-size:13px;font-family:'Microsoft YaHei',微软雅黑,Arial;color:rgb(68,68,68);font-style:normal;text-align:left;font-weight:normal;"><tspan x="677" y="257"><tspan>这个目录包含了FreeRTOS+组件的源代码：</tspan></tspan><tspan x="677" y="275.2"><tspan>FreeRTOS+Trace（用于实时跟踪和性能分析）、</tspan></tspan><tspan x="677" y="293.4"><tspan>FreeRTOS+TCP（一个嵌入式TCP/IP网络堆栈）</tspan></tspan><tspan x="677" y="311.59999999999997"><tspan>以及其他可能的组件。</tspan></tspan><tspan x="677" y="329.79999999999995"><tspan>每个组件通常都有自己的子目录，其中包含相关的源代码文件和文档。</tspan></tspan></text></g></g><g id="f44a56349f10a6d6"><rect x="579.078125" y="374.515625" rx="1px" ry="1px" width="56" height="24" style="fill: transparent; stroke:none;stroke-width:0px;"></rect><g><text text-anchor="start" align="top" anchor="start" font-size="13px" font-weight="normal" fill="rgb(68, 68, 68)" style="font-size:13px;font-family:'Microsoft YaHei',微软雅黑,Arial;color:rgb(68,68,68);font-style:normal;text-align:left;font-weight:normal;"><tspan x="588" y="392"><tspan>Demo</tspan></tspan></text></g></g><g id="54f5ec2c42e290e7"><rect x="662.8125" y="347.9375" rx="1px" ry="1px" width="729" height="77" style="fill: transparent; stroke:none;stroke-width:0px;"></rect><g><text text-anchor="start" align="top" anchor="start" font-size="13px" font-weight="normal" fill="rgb(68, 68, 68)" style="font-size:13px;font-family:'Microsoft YaHei',微软雅黑,Arial;color:rgb(68,68,68);font-style:normal;text-align:left;font-weight:normal;"><tspan x="672" y="364"><tspan style="font-weight:bolder;">·</tspan><tspan>  这个目录包含了多个演示应用程序，这些程序展示了如何使用FreeRTOS+组件。</tspan></tspan><tspan x="672" y="382.2"><tspan style="font-weight:bolder;">·</tspan><tspan>  这些演示程序通常用于评估和测试FreeRTOS+组件的功能和性能。</tspan></tspan><tspan x="672" y="400.4"><tspan style="font-weight:bolder;">·</tspan><tspan>  一些演示程序使用FreeRTOS的Windows模拟器来简化评估过程。</tspan></tspan><tspan x="672" y="418.59999999999997"><tspan style="font-weight:bolder;">·</tspan><tspan>  然而，需要注意的是，在模拟环境中执行FreeRTOS通常会比在实际硬件上慢得多，并且可能不具备确定性（即实时性）。</tspan></tspan></text></g></g><g id="4412f0cd03a51eb4"><rect x="400" y="91.953125" rx="6px" ry="6px" width="105" height="61" style="fill: #ffffff; stroke:none;stroke-width:0px;"></rect><g><text text-anchor="start" align="top" anchor="start" font-size="16px" font-weight="normal" fill="rgb(78, 84, 91)" style="font-size:16px;font-family:'Microsoft YaHei',微软雅黑,Arial;color:#4E545B;font-style:normal;text-align:left;font-weight:normal;"><tspan x="416" y="116"><tspan>FreeRTOS</tspan></tspan><tspan x="416" y="138.4"><tspan>源码</tspan></tspan></text></g></g><g id="bced12f2a61f0d1e"><rect x="533.21875" y="30" rx="1px" ry="1px" width="56" height="40" style="fill: transparent; stroke:none;stroke-width:0px;"></rect><g><text text-anchor="start" align="top" anchor="start" font-size="13px" font-weight="normal" fill="rgb(68, 68, 68)" style="font-size:13px;font-family:'Microsoft YaHei',微软雅黑,Arial;color:rgb(68,68,68);font-style:normal;text-align:left;font-weight:normal;"><tspan x="542" y="46"><tspan>Demo</tspan></tspan><tspan x="542" y="64.2"><tspan>实例</tspan></tspan></text></g></g><g id="91b3793974561c39"><rect x="616.953125" y="38.390625" rx="1px" ry="1px" width="403" height="24" style="fill: transparent; stroke:none;stroke-width:0px;"></rect><g><text text-anchor="start" align="top" anchor="start" font-size="13px" font-weight="normal" fill="rgb(68, 68, 68)" style="font-size:13px;font-family:'Microsoft YaHei',微软雅黑,Arial;color:rgb(68,68,68);font-style:normal;text-align:left;font-weight:normal;"><tspan x="626" y="56"><tspan>各个硬件平台和工程IDE的样例，一般直接使用这上面的进行开发。</tspan></tspan></text></g></g><g id="450f09cfee76393e"><rect x="533.21875" y="109.5625" rx="1px" ry="1px" width="60" height="40" style="fill: transparent; stroke:none;stroke-width:0px;"></rect><g><text text-anchor="start" align="top" anchor="start" font-size="13px" font-weight="normal" fill="rgb(68, 68, 68)" style="font-size:13px;font-family:'Microsoft YaHei',微软雅黑,Arial;color:rgb(68,68,68);font-style:normal;text-align:left;font-weight:normal;"><tspan x="542" y="126"><tspan>Source</tspan></tspan><tspan x="542" y="144.2"><tspan>源码</tspan></tspan></text></g></g><g id="1cfe2bc3fda13f4c"><rect x="621.671875" y="82.375" rx="1px" ry="1px" width="71" height="24" style="fill: transparent; stroke:none;stroke-width:0px;"></rect><g><text text-anchor="start" align="top" anchor="start" font-size="13px" font-weight="normal" fill="rgb(68, 68, 68)" style="font-size:13px;font-family:'Microsoft YaHei',微软雅黑,Arial;color:rgb(68,68,68);font-style:normal;text-align:left;font-weight:normal;"><tspan x="631" y="100"><tspan>protable</tspan></tspan></text></g></g><g id="e70a545e2b0abe81"><rect x="720.1875" y="82.375" rx="1px" ry="1px" width="278" height="24" style="fill: transparent; stroke:none;stroke-width:0px;"></rect><g><text text-anchor="start" align="top" anchor="start" font-size="13px" font-weight="normal" fill="rgb(68, 68, 68)" style="font-size:13px;font-family:'Microsoft YaHei',微软雅黑,Arial;color:rgb(68,68,68);font-style:normal;text-align:left;font-weight:normal;"><tspan x="729" y="100"><tspan>和硬件底层实现相关的，移植的话需要这部分</tspan></tspan></text></g></g><g id="a7d1af619c19d134"><rect x="621.671875" y="117.953125" rx="1px" ry="1px" width="63" height="24" style="fill: transparent; stroke:none;stroke-width:0px;"></rect><g><text text-anchor="start" align="top" anchor="start" font-size="13px" font-weight="normal" fill="rgb(68, 68, 68)" style="font-size:13px;font-family:'Microsoft YaHei',微软雅黑,Arial;color:rgb(68,68,68);font-style:normal;text-align:left;font-weight:normal;"><tspan x="631" y="135"><tspan>include</tspan></tspan></text></g></g><g id="8c71897c7bac25ad"><rect x="621.671875" y="153.53125" rx="1px" ry="1px" width="211" height="24" style="fill: transparent; stroke:none;stroke-width:0px;"></rect><g><text text-anchor="start" align="top" anchor="start" font-size="13px" font-weight="normal" fill="rgb(68, 68, 68)" style="font-size:13px;font-family:'Microsoft YaHei',微软雅黑,Arial;color:rgb(68,68,68);font-style:normal;text-align:left;font-weight:normal;"><tspan x="631" y="171"><tspan style="font-weight:bold;">杂项：FreeRTOS系统的主要实现</tspan></tspan></text></g></g><g id="8bcfb75a0b4f7872"><rect x="533.21875" y="189.109375" rx="1px" ry="1px" width="44" height="24" style="fill: transparent; stroke:none;stroke-width:0px;"></rect><g><text text-anchor="start" align="top" anchor="start" font-size="13px" font-weight="normal" fill="rgb(68, 68, 68)" style="font-size:13px;font-family:'Microsoft YaHei',微软雅黑,Arial;color:rgb(68,68,68);font-style:normal;text-align:left;font-weight:normal;"><tspan x="542" y="207"><tspan>杂项</tspan></tspan></text></g></g><g transform="translate(400, 453)" id="sdjakdjak0"><g id="subline_3deafa3883cca5ca" transform="translate(0.5, 0.5)"><path id="line_2ad92f6c82d96489" d="M 62.4375 19.9296875 L 81 19.9296875 L 81 31.71875 L 264.4375 31.71875" p="3deafa3883cca5ca" stroke="#cccdcd" fill="none" stroke-linecap="square" stroke-width="1"></path></g><g transform="translate(0.5,0.5)"></g><g class="svg-summary-con" transform="translate(0.5,0.5)"></g><g class="svg-boundary-con" transform="translate(0.5,0.5)"></g></g><g transform="translate(400, 519)" id="sdjakdjak1"><g id="subline_69cfb4bc8772fd7b" transform="translate(0.5, 0.5)"></g><g transform="translate(0.5,0.5)"></g><g class="svg-summary-con" transform="translate(0.5,0.5)"></g><g class="svg-boundary-con" transform="translate(0.5,0.5)"></g></g><g transform="translate(400, 241)" id="sdjakdjak2"><g id="subline_b02654543455454f" transform="translate(0.5, 0.5)"><path id="line_6449063dd706067d" d="M 151.078125 92.84375 L 170 92.84375 L 170 64.25 A 4 4 0 0 1 174 60.25 L 239.078125 60.25" p="b02654543455454f" stroke="#cccdcd" fill="none" stroke-linecap="square" stroke-width="1"></path><path id="line_08e97c048b278606" d="M 239.53125 60.25 L 258 60.25 L 258 91.9375 A 4 4 0 0 0 262 95.9375 L 688.53125 95.9375" p="6449063dd706067d" stroke="#cccdcd" fill="none" stroke-linecap="square" stroke-width="1"></path><path id="line_f44a56349f10a6d6" d="M 151.078125 92.84375 L 170 92.84375 L 170 154.09375 A 4 4 0 0 0 174 158.09375 L 235.078125 158.09375" p="b02654543455454f" stroke="#cccdcd" fill="none" stroke-linecap="square" stroke-width="1"></path><path id="line_54f5ec2c42e290e7" d="M 234.8125 158.09375 L 253 158.09375 L 253 180.6875 A 4 4 0 0 0 257 184.6875 L 991.8125 184.6875" p="f44a56349f10a6d6" stroke="#cccdcd" fill="none" stroke-linecap="square" stroke-width="1"></path></g><g transform="translate(0.5,0.5)"></g><g class="svg-summary-con" transform="translate(0.5,0.5)"></g><g class="svg-boundary-con" transform="translate(0.5,0.5)"></g></g><g transform="translate(400, 30)" id="sdjakdjak3"><g id="subline_4412f0cd03a51eb4" transform="translate(0.5, 0.5)"><path id="line_bced12f2a61f0d1e" d="M 105.21875 92.34375 L 124 92.34375 L 124 45.375 A 4 4 0 0 1 128 41.375 L 189.21875 41.375" p="4412f0cd03a51eb4" stroke="#cccdcd" fill="none" stroke-linecap="square" stroke-width="1"></path><path id="line_91b3793974561c39" d="M 188.953125 41.375 L 207 41.375 L 207 32.96875 L 619.953125 32.96875" p="bced12f2a61f0d1e" stroke="#cccdcd" fill="none" stroke-linecap="square" stroke-width="1"></path><path id="line_450f09cfee76393e" d="M 105.21875 92.34375 L 124 92.34375 L 124 120.9375 L 193.21875 120.9375" p="4412f0cd03a51eb4" stroke="#cccdcd" fill="none" stroke-linecap="square" stroke-width="1"></path><path id="line_1cfe2bc3fda13f4c" d="M 193.671875 120.9375 L 212 120.9375 L 212 80.953125 A 4 4 0 0 1 216 76.953125 L 292.671875 76.953125" p="450f09cfee76393e" stroke="#cccdcd" fill="none" stroke-linecap="square" stroke-width="1"></path><path id="line_e70a545e2b0abe81" d="M 292.1875 76.953125 L 311 76.953125 L 311 76.953125 L 598.1875 76.953125" p="1cfe2bc3fda13f4c" stroke="#cccdcd" fill="none" stroke-linecap="square" stroke-width="1"></path><path id="line_a7d1af619c19d134" d="M 193.671875 120.9375 L 212 120.9375 L 212 112.53125 L 284.671875 112.53125" p="450f09cfee76393e" stroke="#cccdcd" fill="none" stroke-linecap="square" stroke-width="1"></path><path id="line_8c71897c7bac25ad" d="M 193.671875 120.9375 L 212 120.9375 L 212 144.109375 A 4 4 0 0 0 216 148.109375 L 432.671875 148.109375" p="450f09cfee76393e" stroke="#cccdcd" fill="none" stroke-linecap="square" stroke-width="1"></path><path id="line_8bcfb75a0b4f7872" d="M 105.21875 92.34375 L 124 92.34375 L 124 179.6875 A 4 4 0 0 0 128 183.6875 L 177.21875 183.6875" p="4412f0cd03a51eb4" stroke="#cccdcd" fill="none" stroke-linecap="square" stroke-width="1"></path></g><g transform="translate(0.5,0.5)"></g><g class="svg-summary-con" transform="translate(0.5,0.5)"></g><g class="svg-boundary-con" transform="translate(0.5,0.5)"></g></g><g transform="translate(30, 265.5)" id="sdjakdjak4"><g id="subline_root" transform="translate(0.5, 0.5)"></g><g transform="translate(0.5,0.5)"></g><g class="svg-summary-con" transform="translate(0.5,0.5)"></g><g class="svg-boundary-con" transform="translate(0.5,0.5)"></g></g><g id="root"><rect x="30" y="265.5" rx="6px" ry="6px" width="290" height="58" style="fill: #50C28B; stroke:none;stroke-width:0px;"></rect><g><text text-anchor="start" align="top" anchor="start" font-size="25px" font-weight="normal" fill="rgb(255, 255, 255)" style="font-size:25px;font-family:'Microsoft YaHei',微软雅黑,Arial;color:#fff;font-style:normal;text-align:left;font-weight:normal;"><tspan x="50" y="303"><tspan>FreeRTOSv202212.01</tspan></tspan></text></g></g><g transform="translate(526.0390625, 349.5)"><text id="normal_brand" style="transform:rotate(-30deg);opacity: 0.06; color:#000; font-family: Microsoft Yahei;"><tspan font-size="72" dy="0" x="0"></tspan></text></g></svg>